<svg id="Capa_1" enable-background="new 0 0 511.997 511.997" height="512" viewBox="0 0 511.997 511.997" width="512" xmlns="http://www.w3.org/2000/svg"><g><g><g><path d="m392.149 89.251h-24.381v243.902l26.369-28.791c8.001-8.736 12.44-20.153 12.44-32v-168.683c0-7.968-6.46-14.428-14.428-14.428z" fill="#5d656e"/></g></g><g><g><path d="m349.521 504.497h-225.854c-10.078 0-18.247-8.169-18.247-18.247v-428.235c0-10.078 8.17-18.247 18.247-18.247h225.853c10.078 0 18.247 8.169 18.247 18.247v428.235c.001 10.077-8.169 18.247-18.246 18.247z" fill="#a2c3fe"/></g></g><g><g><path d="m171.472 338.089h-19.648c-4.743 0-8.587-3.845-8.587-8.587v-19.648c0-4.743 3.845-8.587 8.587-8.587h19.648c4.743 0 8.587 3.845 8.587 8.587v19.648c0 4.742-3.845 8.587-8.587 8.587z" fill="#d8d8d8"/></g></g><g><g><path d="m244.42 338.089h-19.648c-4.743 0-8.587-3.845-8.587-8.587v-19.648c0-4.743 3.845-8.587 8.587-8.587h19.648c4.743 0 8.587 3.845 8.587 8.587v19.648c.001 4.742-3.844 8.587-8.587 8.587z" fill="#d8d8d8"/></g></g><g><g><path d="m317.369 338.089h-19.648c-4.743 0-8.587-3.845-8.587-8.587v-19.648c0-4.743 3.845-8.587 8.587-8.587h19.648c4.743 0 8.587 3.845 8.587 8.587v19.648c0 4.742-3.845 8.587-8.587 8.587z" fill="#d8d8d8"/></g></g><g><g><path d="m171.472 404.469h-19.648c-4.743 0-8.587-3.845-8.587-8.587v-19.648c0-4.743 3.845-8.587 8.587-8.587h19.648c4.743 0 8.587 3.845 8.587 8.587v19.648c0 4.742-3.845 8.587-8.587 8.587z" fill="#d8d8d8"/></g></g><g><g><path d="m244.42 404.469h-19.648c-4.743 0-8.587-3.845-8.587-8.587v-19.648c0-4.743 3.845-8.587 8.587-8.587h19.648c4.743 0 8.587 3.845 8.587 8.587v19.648c.001 4.742-3.844 8.587-8.587 8.587z" fill="#d8d8d8"/></g></g><g><g><path d="m317.369 404.469h-19.648c-4.743 0-8.587-3.845-8.587-8.587v-19.648c0-4.743 3.845-8.587 8.587-8.587h19.648c4.743 0 8.587 3.845 8.587 8.587v19.648c0 4.742-3.845 8.587-8.587 8.587z" fill="#72c888"/></g></g><g><g><path d="m171.472 470.848h-19.648c-4.743 0-8.587-3.845-8.587-8.587v-19.648c0-4.743 3.845-8.587 8.587-8.587h19.648c4.743 0 8.587 3.845 8.587 8.587v19.648c0 4.743-3.845 8.587-8.587 8.587z" fill="#d8d8d8"/></g></g><g><g><path d="m244.42 470.848h-19.648c-4.743 0-8.587-3.845-8.587-8.587v-19.648c0-4.743 3.845-8.587 8.587-8.587h19.648c4.743 0 8.587 3.845 8.587 8.587v19.648c.001 4.743-3.844 8.587-8.587 8.587z" fill="#d8d8d8"/></g></g><g><g><path d="m317.369 470.848h-19.648c-4.743 0-8.587-3.845-8.587-8.587v-19.648c0-4.743 3.845-8.587 8.587-8.587h19.648c4.743 0 8.587 3.845 8.587 8.587v19.648c0 4.743-3.845 8.587-8.587 8.587z" fill="#fe787e"/></g></g><g><g><path d="m319.827 143.511h-170.461c-3.385 0-6.129 2.744-6.129 6.129v107.329c0 3.385 2.744 6.129 6.129 6.129h170.461c3.385 0 6.129-2.744 6.129-6.129v-107.329c0-3.385-2.744-6.129-6.129-6.129z" fill="#f2f5fb"/></g></g><g><g><path d="m319.827 143.511h-30c3.385 0 6.129 2.744 6.129 6.129v107.329c0 3.385-2.744 6.129-6.129 6.129h30c3.385 0 6.129-2.744 6.129-6.129v-107.329c0-3.385-2.744-6.129-6.129-6.129z" fill="#e6e8f0"/></g></g><g><g><path d="m319.768 112.842h-170.343c-3.418 0-6.188-2.771-6.188-6.188v-90.818c0-4.182 4.296-6.986 8.124-5.304l12.385 5.443c1.485.653 3.177.653 4.662 0l18.178-7.989c1.485-.653 3.176-.653 4.662 0l18.178 7.989c1.485.653 3.176.653 4.662 0l18.178-7.989c1.485-.653 3.176-.653 4.662 0l18.178 7.989c1.485.653 3.176.653 4.662 0l18.178-7.989c1.485-.653 3.177-.653 4.662 0l18.178 7.989c1.485.653 3.176.653 4.662 0l12.385-5.443c3.829-1.683 8.124 1.122 8.124 5.304v90.818c-.001 3.418-2.772 6.188-6.189 6.188z" fill="#f2f5fb"/></g></g><g><g><path d="m349.521 39.767h-30c10.078 0 18.247 8.169 18.247 18.247v428.236c0 10.078-8.17 18.247-18.247 18.247h30c10.078 0 18.247-8.169 18.247-18.247v-428.235c0-10.078-8.17-18.248-18.247-18.248z" fill="#77a2f3"/></g></g><g><g><path d="m317.832 10.532-12.385 5.443c-1.486.653-3.176.653-4.662 0l-5.244-2.305c.266.661.415 1.389.415 2.166v90.818c0 3.418-2.771 6.188-6.188 6.188h30c3.418 0 6.188-2.771 6.188-6.188v-90.818c0-4.182-4.296-6.986-8.124-5.304z" fill="#e6e8f0"/></g></g><g><path d="m406.577 172.485c4.142 0 7.5-3.358 7.5-7.5v-61.306c0-12.091-9.837-21.928-21.928-21.928h-16.881v-23.737c0-14.197-11.55-25.747-25.747-25.747h-16.064v-16.431c0-4.506-2.253-8.667-6.026-11.131s-8.489-2.851-12.616-1.039l-11.698 5.141-17.492-7.687c-3.398-1.494-7.297-1.493-10.697 0l-17.492 7.687-17.491-7.687c-3.398-1.494-7.298-1.494-10.697 0l-17.491 7.687-17.492-7.687c-3.399-1.493-7.298-1.492-10.697.001l-17.491 7.687-11.698-5.141c-4.126-1.813-8.842-1.425-12.616 1.039-3.773 2.464-6.026 6.625-6.026 11.131v16.431h-12.069c-14.197 0-25.747 11.55-25.747 25.747v175.084c0 4.142 3.358 7.5 7.5 7.5s7.5-3.358 7.5-7.5v-175.085c0-5.926 4.821-10.747 10.747-10.747h12.069v59.387c0 7.548 6.141 13.688 13.689 13.688h170.343c7.548 0 13.689-6.141 13.689-13.688v-59.387h16.064c5.926 0 10.747 4.821 10.747 10.747v428.236c0 5.926-4.821 10.747-10.747 10.747h-225.854c-5.926 0-10.747-4.821-10.747-10.747v-223.152c0-4.142-3.358-7.5-7.5-7.5s-7.5 3.358-7.5 7.5v223.152c0 14.197 11.55 25.747 25.747 25.747h225.853c14.197 0 25.747-11.55 25.747-25.747v-150.182l24.4-26.64c9.292-10.145 14.409-23.309 14.409-37.066v-77.376c0-4.142-3.358-7.5-7.5-7.5s-7.5 3.358-7.5 7.5v77.376c0 9.997-3.719 19.562-10.471 26.935l-13.338 14.563v-217.109h16.881c3.82 0 6.928 3.108 6.928 6.928v61.306c0 4.142 3.358 7.5 7.5 7.5zm-88.121-67.142h-167.72v-86.893l9.992 4.391c3.399 1.494 7.298 1.494 10.697 0l17.492-7.687 17.491 7.687c3.399 1.494 7.299 1.493 10.697 0l17.491-7.687 17.492 7.687c3.399 1.493 7.298 1.494 10.697 0l17.492-7.687 17.491 7.687c3.4 1.494 7.298 1.494 10.697 0l9.992-4.391v86.893z"/><path d="m135.736 329.501c0 8.871 7.217 16.087 16.087 16.087h19.648c8.871 0 16.087-7.217 16.087-16.087v-19.647c0-8.871-7.217-16.087-16.087-16.087h-19.648c-8.871 0-16.087 7.217-16.087 16.087zm15-19.647c0-.6.488-1.087 1.087-1.087h19.648c.6 0 1.087.488 1.087 1.087v19.647c0 .6-.488 1.087-1.087 1.087h-19.648c-.6 0-1.087-.488-1.087-1.087z"/><path d="m260.508 309.854c0-8.871-7.217-16.087-16.087-16.087h-19.647c-8.871 0-16.087 7.217-16.087 16.087v19.647c0 8.871 7.217 16.087 16.087 16.087h19.647c8.871 0 16.087-7.217 16.087-16.087zm-15.001 19.647c0 .6-.488 1.087-1.087 1.087h-19.647c-.6 0-1.087-.488-1.087-1.087v-19.647c0-.6.488-1.087 1.087-1.087h19.647c.6 0 1.087.488 1.087 1.087z"/><path d="m333.456 309.854c0-8.871-7.217-16.087-16.087-16.087h-19.648c-8.871 0-16.087 7.217-16.087 16.087v19.647c0 8.871 7.217 16.087 16.087 16.087h19.648c8.871 0 16.087-7.217 16.087-16.087zm-15 19.647c0 .6-.488 1.087-1.087 1.087h-19.648c-.6 0-1.087-.488-1.087-1.087v-19.647c0-.6.488-1.087 1.087-1.087h19.648c.6 0 1.087.488 1.087 1.087z"/><path d="m135.736 395.881c0 8.871 7.217 16.087 16.087 16.087h19.648c8.871 0 16.087-7.217 16.087-16.087v-19.648c0-8.871-7.217-16.087-16.087-16.087h-19.648c-8.871 0-16.087 7.217-16.087 16.087zm15-19.647c0-.6.488-1.087 1.087-1.087h19.648c.6 0 1.087.488 1.087 1.087v19.648c0 .6-.488 1.087-1.087 1.087h-19.648c-.6 0-1.087-.488-1.087-1.087z"/><path d="m260.508 376.234c0-8.871-7.217-16.087-16.087-16.087h-19.647c-8.871 0-16.087 7.217-16.087 16.087v19.648c0 8.871 7.217 16.087 16.087 16.087h19.647c8.871 0 16.087-7.217 16.087-16.087zm-15.001 19.647c0 .6-.488 1.087-1.087 1.087h-19.647c-.6 0-1.087-.488-1.087-1.087v-19.648c0-.6.488-1.087 1.087-1.087h19.647c.6 0 1.087.488 1.087 1.087z"/><path d="m333.456 376.234c0-8.871-7.217-16.087-16.087-16.087h-19.648c-8.871 0-16.087 7.217-16.087 16.087v19.648c0 8.871 7.217 16.087 16.087 16.087h19.648c8.871 0 16.087-7.217 16.087-16.087zm-15 19.647c0 .6-.488 1.087-1.087 1.087h-19.648c-.6 0-1.087-.488-1.087-1.087v-19.648c0-.6.488-1.087 1.087-1.087h19.648c.6 0 1.087.488 1.087 1.087z"/><path d="m135.736 462.261c0 8.871 7.217 16.087 16.087 16.087h19.648c8.871 0 16.087-7.217 16.087-16.087v-19.647c0-8.871-7.217-16.087-16.087-16.087h-19.648c-8.871 0-16.087 7.217-16.087 16.087zm15-19.647c0-.6.488-1.087 1.087-1.087h19.648c.6 0 1.087.488 1.087 1.087v19.647c0 .6-.488 1.087-1.087 1.087h-19.648c-.6 0-1.087-.488-1.087-1.087z"/><path d="m244.42 426.526h-19.647c-8.871 0-16.087 7.217-16.087 16.087v19.647c0 8.871 7.217 16.087 16.087 16.087h19.647c8.871 0 16.087-7.217 16.087-16.087v-19.647c.001-8.87-7.216-16.087-16.087-16.087zm1.087 35.735c0 .6-.488 1.087-1.087 1.087h-19.647c-.6 0-1.087-.488-1.087-1.087v-19.647c0-.6.488-1.087 1.087-1.087h19.647c.6 0 1.087.488 1.087 1.087z"/><path d="m317.369 426.526h-19.648c-8.871 0-16.087 7.217-16.087 16.087v19.647c0 8.871 7.217 16.087 16.087 16.087h19.648c8.871 0 16.087-7.217 16.087-16.087v-19.647c0-8.87-7.217-16.087-16.087-16.087zm1.087 35.735c0 .6-.488 1.087-1.087 1.087h-19.648c-.6 0-1.087-.488-1.087-1.087v-19.647c0-.6.488-1.087 1.087-1.087h19.648c.6 0 1.087.488 1.087 1.087z"/><path d="m333.456 149.64c0-7.515-6.114-13.629-13.629-13.629h-170.461c-7.515 0-13.629 6.114-13.629 13.629v107.329c0 7.515 6.114 13.629 13.629 13.629h170.461c7.515 0 13.629-6.114 13.629-13.629zm-15 105.958h-167.72v-104.587h167.72z"/><path d="m178.812 192.289h42.373c4.142 0 7.5-3.358 7.5-7.5s-3.358-7.5-7.5-7.5h-42.373c-4.142 0-7.5 3.358-7.5 7.5s3.358 7.5 7.5 7.5z"/><path d="m178.812 221.804h74.195c4.142 0 7.5-3.358 7.5-7.5s-3.358-7.5-7.5-7.5h-74.195c-4.142 0-7.5 3.358-7.5 7.5s3.358 7.5 7.5 7.5z"/><path d="m185.825 56.954h51.145c4.142 0 7.5-3.358 7.5-7.5s-3.358-7.5-7.5-7.5h-51.145c-4.142 0-7.5 3.358-7.5 7.5s3.358 7.5 7.5 7.5z"/><path d="m282.873 69.585h-97.047c-4.142 0-7.5 3.358-7.5 7.5s3.358 7.5 7.5 7.5h97.047c4.142 0 7.5-3.358 7.5-7.5s-3.358-7.5-7.5-7.5z"/></g></g></svg>