<svg id="Capa_1" enable-background="new 0 0 512.009 512.009" height="512" viewBox="0 0 512.009 512.009" width="512" xmlns="http://www.w3.org/2000/svg"><g><g><g fill="#e8ad8c"><path d="m241.005 128.441h30v255.126h-30z"/><path d="m128.441 241.004h255.126v30h-255.126z"/><path d="m128.441 241.004h255.126v30h-255.126z" transform="matrix(.707 -.707 .707 .707 -106.04 256.005)"/><path d="m241.005 128.441h30v255.126h-30z" transform="matrix(.707 -.707 .707 .707 -106.04 256.005)"/></g><g><path d="m290.505 42.004c0-19.387-15.991-35.039-35.503-34.486-17.714.503-32.384 14.694-33.434 32.384-.61 10.283 3.291 19.659 9.906 26.347 2.844 2.876 4.532 6.695 4.532 10.74v34.515h40v-34.516c0-3.936 1.517-7.743 4.31-10.517 6.29-6.247 10.189-14.9 10.189-24.467z" fill="#e8ad8c"/><path d="m255.001 7.518c-4.973.141-9.706 1.362-13.966 3.435 11.521 5.588 19.469 17.387 19.469 31.051 0 9.567-3.898 18.22-10.19 24.467-2.793 2.773-4.31 6.581-4.31 10.517v34.516h30v-34.516c0-3.936 1.517-7.743 4.31-10.517 6.291-6.248 10.19-14.9 10.19-24.467.001-19.387-15.991-35.039-35.503-34.486z" fill="#e19974"/><path d="m290.505 470.004c0 19.387-15.991 35.039-35.503 34.486-17.714-.503-32.384-14.694-33.434-32.384-.61-10.283 3.291-19.659 9.906-26.347 2.844-2.876 4.532-6.695 4.532-10.74v-34.515h40v34.516c0 3.936 1.517 7.743 4.31 10.517 6.29 6.248 10.189 14.9 10.189 24.467z" fill="#e8ad8c"/><path d="m280.315 445.537c-2.793-2.773-4.31-6.581-4.31-10.517v-34.516h-30v34.516c0 3.936 1.517 7.743 4.31 10.517 6.291 6.248 10.19 14.9 10.19 24.467 0 13.664-7.948 25.463-19.469 31.051 4.259 2.073 8.992 3.294 13.966 3.435 19.512.554 35.503-15.099 35.503-34.486 0-9.567-3.899-18.219-10.19-24.467z" fill="#e19974"/></g><g><path d="m42.005 221.504c-19.387 0-35.039 15.991-34.486 35.503.503 17.714 14.694 32.384 32.384 33.434 10.283.61 19.659-3.291 26.347-9.906 2.876-2.844 6.695-4.532 10.74-4.532h34.515v-40h-34.516c-3.936 0-7.743-1.517-10.517-4.31-6.248-6.29-14.9-10.189-24.467-10.189z" fill="#e8ad8c"/><path d="m66.25 250.536c-6.688 6.615-16.064 10.516-26.347 9.906-12.723-.755-23.636-8.557-28.948-19.469-2.341 4.826-3.599 10.274-3.435 16.034.503 17.714 14.694 32.384 32.383 33.434 10.283.61 19.659-3.291 26.347-9.906 2.876-2.844 6.695-4.532 10.74-4.532h34.515v-30h-34.516c-4.044.001-7.863 1.689-10.739 4.533z" fill="#e19974"/><path d="m470.005 221.504c19.387 0 35.039 15.991 34.486 35.503-.503 17.714-14.694 32.384-32.384 33.434-10.283.61-19.659-3.291-26.347-9.906-2.876-2.844-6.695-4.532-10.74-4.532h-34.515v-40h34.516c3.936 0 7.743-1.517 10.517-4.31 6.247-6.29 14.899-10.189 24.467-10.189z" fill="#e8ad8c"/><path d="m470.005 221.504c-5.377 0-10.466 1.232-15 3.428 11.821 5.717 19.886 17.975 19.486 32.076-.372 13.12-8.257 24.563-19.507 30.047 5.128 2.489 10.96 3.753 17.124 3.388 17.69-1.05 31.881-15.72 32.383-33.434.553-19.513-15.099-35.505-34.486-35.505z" fill="#e19974"/></g><g><path d="m431.721 129.078c13.709-13.709 13.469-36.084-.72-49.49-12.881-12.17-33.289-12.509-46.54-.743-7.703 6.84-11.574 16.228-11.626 25.635-.022 4.045-1.53 7.939-4.39 10.799l-24.406 24.406 28.284 28.284 24.407-24.407c2.783-2.783 6.548-4.403 10.484-4.389 8.867.032 17.742-3.329 24.507-10.095z" fill="#e8ad8c"/><path d="m431.001 79.589c-10.54-9.958-26.117-11.99-38.692-5.955 3.126 1.495 6.067 3.475 8.692 5.955 14.188 13.406 14.428 35.781.72 49.49-6.765 6.765-15.64 10.127-24.506 10.096-3.936-.014-7.701 1.606-10.484 4.389l-9.406 9.406 15 15 24.406-24.406c2.783-2.783 6.548-4.403 10.484-4.389 8.866.031 17.741-3.331 24.506-10.096 13.708-13.709 13.469-36.085-.72-49.49z" fill="#e19974"/><path d="m129.079 431.72c-13.709 13.709-36.084 13.469-49.49-.72-12.17-12.881-12.509-33.289-.743-46.54 6.84-7.703 16.228-11.574 25.635-11.626 4.045-.022 7.939-1.53 10.799-4.39l24.406-24.406 28.284 28.284-24.407 24.407c-2.783 2.783-4.403 6.548-4.389 10.484.031 8.867-3.33 17.742-10.095 24.507z" fill="#e8ad8c"/><path d="m139.685 344.039-2.024 2.024 8.022 8.022-24.407 24.406c-2.783 2.783-4.403 6.548-4.389 10.484.031 8.866-3.331 17.741-10.096 24.506-8.964 8.964-21.633 11.961-33.077 8.997 1.486 3.062 3.439 5.944 5.874 8.522 13.406 14.188 35.781 14.428 49.49.72 6.765-6.765 10.127-15.64 10.096-24.506-.014-3.936 1.606-7.701 4.389-10.484l24.406-24.406z" fill="#e19974"/></g><g><path d="m129.079 80.288c-13.709-13.709-36.084-13.469-49.49.72-12.17 12.881-12.509 33.289-.743 46.54 6.84 7.703 16.228 11.574 25.635 11.626 4.045.022 7.939 1.53 10.799 4.39l24.406 24.406 28.284-28.284-24.407-24.407c-2.783-2.783-4.403-6.548-4.389-10.484.031-8.867-3.33-17.742-10.095-24.507z" fill="#e8ad8c"/><path d="m143.563 115.279c-2.783-2.783-4.403-6.548-4.389-10.484.031-8.866-3.331-17.741-10.096-24.506-10.659-10.659-26.555-12.881-39.402-6.675 3.397 1.639 6.584 3.858 9.402 6.675 6.765 6.765 10.127 15.64 10.096 24.506-.014 3.936 1.606 7.701 4.389 10.484l38.895 39.918 15.512-15.512z" fill="#e19974"/><path d="m431.721 382.93c13.709 13.709 13.469 36.084-.72 49.49-12.881 12.17-33.289 12.509-46.54.743-7.703-6.84-11.574-16.228-11.626-25.635-.022-4.045-1.53-7.939-4.39-10.799l-24.406-24.406 28.284-28.284 24.407 24.407c2.783 2.783 6.548 4.403 10.484 4.389 8.867-.032 17.742 3.33 24.507 10.095z" fill="#e8ad8c"/><path d="m431.721 382.93c-6.765-6.765-15.64-10.127-24.506-10.096-3.936.014-7.701-1.606-10.484-4.389l-24.406-24.406-15 15 9.406 9.406c2.783 2.783 6.548 4.403 10.484 4.389 8.866-.031 17.741 3.331 24.506 10.096 13.709 13.709 13.469 36.084-.72 49.49-2.625 2.48-5.566 4.46-8.692 5.955 12.574 6.034 28.152 4.003 38.692-5.955 14.189-13.406 14.428-35.781.72-49.49z" fill="#e19974"/></g><path d="m256.005 91.004c-91.127 0-165 73.873-165 165s73.873 165 165 165 165-73.873 165-165-73.873-165-165-165zm0 277.563c-62.167 0-112.563-50.396-112.563-112.563s50.396-112.563 112.563-112.563 112.563 50.396 112.563 112.563-50.397 112.563-112.563 112.563z" fill="#e19974"/><g fill="#dc8758"><path d="m256.005 91.004c-5.058 0-10.058.24-15 .686 84.096 7.58 150 78.245 150 164.314s-65.904 156.734-150 164.314c4.942.445 9.942.686 15 .686 91.127 0 165-73.873 165-165s-73.873-165-165-165z"/><path d="m241.005 144.438c-4.908-.654-9.914-.997-15-.997-62.167 0-112.563 50.396-112.563 112.563s50.396 112.563 112.563 112.563c5.086 0 10.092-.344 15-.997-55.074-7.335-97.563-54.486-97.563-111.566s42.488-104.231 97.563-111.566z"/></g><circle cx="256.005" cy="256.004" fill="#e19974" r="53.773"/><path d="m256.005 202.231c-5.208 0-10.237.755-15 2.136 22.395 6.495 38.773 27.147 38.773 51.636s-16.377 45.141-38.773 51.636c4.763 1.381 9.792 2.136 15 2.136 29.698 0 53.773-24.075 53.773-53.773s-24.076-53.771-53.773-53.771z" fill="#dc8758"/></g><path d="m500.124 226.73c-7.979-8.206-18.675-12.726-30.12-12.726-11.263 0-21.843 4.405-29.792 12.406-1.321 1.331-3.212 2.094-5.188 2.094h-8.721c-4.358-27.085-15.042-52.078-30.487-73.416l6.222-6.222c1.394-1.394 3.267-2.193 5.135-2.193.054-.001.109 0 .164 0 11.218 0 21.758-4.364 29.691-12.297 8.09-8.089 12.456-18.848 12.294-30.294-.162-11.442-4.837-22.079-13.167-29.95-15.666-14.803-40.559-15.198-56.668-.899-8.931 7.924-14.089 19.299-14.152 31.213-.011 2.16-.793 4.128-2.193 5.534l-6.215 6.216c-21.339-15.447-46.334-26.133-73.421-30.491v-8.721c0-1.975.763-3.866 2.096-5.189 7.999-7.948 12.404-18.527 12.404-29.791 0-11.444-4.52-22.141-12.726-30.12-8.204-7.976-19.027-12.181-30.49-11.868-21.553.621-39.435 17.946-40.711 39.443-.707 11.917 3.691 23.606 12.065 32.069 1.523 1.539 2.361 3.476 2.361 5.455v8.749c-26.683 4.323-51.809 14.84-73.437 30.437l-6.2-6.2c-1.398-1.398-2.198-3.278-2.193-5.151.039-11.274-4.329-21.871-12.297-29.839-8.09-8.09-18.868-12.457-30.294-12.294-11.442.162-22.079 4.837-29.95 13.167-14.803 15.666-15.197 40.558-.899 56.668 7.924 8.931 19.299 14.089 31.213 14.152 2.16.011 4.128.793 5.534 2.193l6.171 6.171c-3.831 5.296-7.4 10.825-10.645 16.602-2.028 3.612-.746 8.184 2.866 10.212 3.611 2.028 8.184.745 10.212-2.866 27.886-49.644 80.542-80.483 137.419-80.483 86.846 0 157.5 70.654 157.5 157.5s-70.654 157.5-157.5 157.5-157.5-70.654-157.5-157.5c0-15.784 2.326-31.361 6.913-46.299 1.216-3.959-1.008-8.155-4.968-9.371-3.96-1.217-8.155 1.008-9.371 4.968-2.334 7.6-4.126 15.351-5.384 23.202h-8.71c-1.975 0-3.866-.763-5.189-2.096-7.948-7.999-18.527-12.404-29.791-12.404-11.444 0-22.141 4.52-30.12 12.726-7.976 8.204-12.19 19.031-11.868 30.49.621 21.553 17.946 39.435 39.443 40.711 11.846.703 23.606-3.691 32.069-12.065 1.539-1.523 3.476-2.361 5.455-2.361h8.721c4.358 27.087 15.044 52.082 30.491 73.421l-6.207 6.206c-1.414 1.41-3.383 2.192-5.545 2.203-11.912.063-23.287 5.222-31.21 14.151-14.299 16.111-13.904 41.003.898 56.67 7.871 8.329 18.508 13.004 29.95 13.166.205.003.409.004.613.004 11.216 0 21.736-4.354 29.681-12.298 7.968-7.968 12.335-18.565 12.297-29.832-.005-1.88.794-3.76 2.193-5.158l6.221-6.221c21.338 15.444 46.331 26.129 73.416 30.487v8.721c0 1.979-.838 3.916-2.361 5.455-8.375 8.463-12.773 20.152-12.066 32.07 1.276 21.497 19.158 38.822 40.715 39.443.409.011.816.017 1.224.017 11 0 21.351-4.194 29.262-11.885 8.206-7.979 12.726-18.675 12.726-30.12 0-11.263-4.405-21.843-12.406-29.792-1.331-1.321-2.094-3.212-2.094-5.188v-8.721c27.087-4.358 52.082-15.044 73.421-30.491l6.206 6.207c1.41 1.414 2.192 3.383 2.203 5.545.063 11.911 5.222 23.287 14.151 31.21 7.75 6.878 17.599 10.523 27.732 10.523 3.845 0 7.734-.525 11.562-1.598 3.988-1.118 6.315-5.257 5.197-9.246-1.117-3.988-5.256-6.314-9.246-5.197-8.976 2.518-18.431.386-25.289-5.701-5.832-5.174-9.066-12.302-9.107-20.067-.03-6.129-2.367-11.831-6.587-16.066l-4.979-4.98c6.308-5.461 12.218-11.371 17.678-17.679l4.984 4.984c4.188 4.188 9.925 6.587 15.757 6.587h.147c7.212 0 13.987 2.805 19.086 7.903 6.762 6.763 9.451 16.721 7.015 25.989-1.053 4.006 1.342 8.107 5.348 9.16.639.168 1.28.248 1.911.248 3.326 0 6.364-2.229 7.249-5.596 3.785-14.406-.398-29.889-10.917-40.407-7.934-7.934-18.472-12.297-29.685-12.297-.054 0-.103.001-.164 0-1.874 0-3.747-.799-5.142-2.193l-6.221-6.221c15.444-21.338 26.129-46.331 30.487-73.416h8.721c1.979 0 3.916.838 5.455 2.361 8.483 8.394 20.198 12.771 32.07 12.066 21.497-1.276 38.822-19.158 39.443-40.715.326-11.453-3.889-22.28-11.865-30.484zm-374.609-83.542-4.937-4.937c-4.226-4.211-9.928-6.547-16.055-6.578-7.768-.041-14.896-3.275-20.07-9.108-9.186-10.35-8.93-26.343.582-36.41 5.063-5.358 11.904-8.367 19.26-8.47 7.34-.106 14.276 2.702 19.476 7.902 5.121 5.122 7.928 11.934 7.903 19.188-.015 5.843 2.387 11.602 6.587 15.802l4.963 4.963c-6.291 5.431-12.222 11.314-17.709 17.648zm149.515-82.036c-4.147 4.118-6.526 9.888-6.526 15.832v6.976c-4.129-.297-8.296-.456-12.5-.456-4.191 0-8.358.165-12.5.467v-6.987c0-5.956-2.379-11.64-6.699-16.005-5.462-5.52-8.216-12.847-7.754-20.63.819-13.809 12.314-24.938 26.165-25.337 7.385-.205 14.333 2.502 19.606 7.628 5.276 5.13 8.182 12.007 8.182 19.365.001 7.237-2.832 14.038-7.974 19.147zm111.416 82.094c-5.461-6.308-11.37-12.218-17.678-17.679l4.989-4.989c4.211-4.226 6.547-9.928 6.578-16.055.041-7.768 3.275-14.896 9.108-20.07 10.35-9.186 26.343-8.93 36.41.582 5.358 5.063 8.367 11.904 8.47 19.26.104 7.359-2.702 14.276-7.902 19.476-5.099 5.099-11.874 7.903-19.093 7.903-.049 0-.097 0-.148 0-5.824 0-11.562 2.399-15.749 6.587zm-309.461 125.258c-5.956 0-11.64 2.379-16.005 6.699-5.52 5.463-12.849 8.216-20.63 7.754-13.809-.819-24.938-12.314-25.337-26.165-.208-7.37 2.501-14.333 7.628-19.606 5.13-5.276 12.007-8.182 19.365-8.182 7.238 0 14.039 2.833 19.148 7.974 4.118 4.147 9.888 6.526 15.832 6.526h6.97c-.298 4.149-.45 8.318-.45 12.5 0 4.204.159 8.371.456 12.5zm61.277 122.926c-4.201 4.2-6.602 9.959-6.587 15.809.025 7.248-2.782 14.06-7.903 19.182-5.2 5.199-12.146 8.003-19.476 7.902-7.356-.104-14.196-3.112-19.26-8.47-9.512-10.067-9.768-26.061-.581-36.412 5.174-5.832 12.302-9.066 20.067-9.107 6.129-.03 11.831-2.367 16.066-6.587l4.98-4.979c5.461 6.308 11.371 12.218 17.679 17.678zm136.56 97.939c-5.274 5.127-12.244 7.836-19.602 7.628-13.854-.399-25.35-11.528-26.169-25.337-.462-7.784 2.292-15.11 7.755-20.631 4.319-4.365 6.698-10.049 6.698-16.005v-6.976c4.129.297 8.296.456 12.5.456s8.371-.159 12.5-.456v6.976c0 5.944 2.378 11.714 6.524 15.83 5.144 5.111 7.976 11.912 7.976 19.15.001 7.358-2.905 14.235-8.182 19.365zm222.176-232.581c-.399 13.854-11.528 25.35-25.337 26.169-7.785.458-15.11-2.292-20.631-7.755-4.365-4.319-10.049-6.698-16.005-6.698h-6.976c.297-4.129.456-8.296.456-12.5s-.159-8.371-.456-12.5h6.976c5.944 0 11.714-2.378 15.83-6.524 5.111-5.144 11.912-7.976 19.15-7.976 7.358 0 14.235 2.906 19.365 8.182 5.126 5.274 7.835 12.237 7.628 19.602zm-240.993 119.279c65.894 0 120.063-54.075 120.063-120.063 0-66.139-53.9-120.063-120.063-120.063-66.186 0-120.063 53.874-120.063 120.063 0 65.756 54.36 120.063 120.063 120.063zm-79.375-51.302 31.097-31.097c3.093 3.956 6.658 7.521 10.613 10.613l-31.097 31.097c-3.783-3.282-7.331-6.829-10.613-10.613zm33.102-68.761c0-25.515 20.758-46.273 46.273-46.273s46.273 20.758 46.273 46.273-20.758 46.273-46.273 46.273-46.273-20.758-46.273-46.273zm23.773 102.63c-12.319-2.699-23.839-7.558-34.132-14.171l32.256-32.257c.619.27 1.246.523 1.876.773zm30 2.163c-2.478.176-4.978.271-7.5.271s-5.022-.095-7.5-.271v-43.995c2.46.302 4.96.476 7.5.476s5.04-.174 7.5-.476zm15-2.163v-45.655c.63-.249 1.257-.503 1.876-.773l32.256 32.257c-10.294 6.613-21.813 11.472-34.132 14.171zm46.26-23.256-31.097-31.097c3.956-3.093 7.521-6.658 10.613-10.613l31.097 31.097c-3.281 3.784-6.829 7.331-10.613 10.613zm19.698-22.742-32.257-32.256c.27-.619.523-1.246.773-1.876h45.655c-2.699 12.319-7.558 23.839-14.171 34.132zm16.605-56.632c0 2.522-.095 5.022-.271 7.5h-43.995c.302-2.46.476-4.96.476-7.5s-.174-5.04-.476-7.5h43.995c.176 2.478.271 4.978.271 7.5zm-16.605-56.632c6.613 10.293 11.472 21.813 14.171 34.132h-45.655c-.249-.63-.503-1.257-.773-1.876zm-9.084-12.128-31.097 31.097c-3.093-3.956-6.658-7.521-10.613-10.613l31.097-31.097c3.783 3.281 7.331 6.829 10.613 10.613zm-56.874-33.869c12.319 2.699 23.839 7.558 34.132 14.171l-32.256 32.257c-.619-.27-1.246-.523-1.876-.773zm-30-2.163c2.478-.176 4.978-.271 7.5-.271s5.022.095 7.5.271v43.995c-2.46-.302-4.96-.476-7.5-.476s-5.04.174-7.5.476zm-15 2.163v45.655c-.63.25-1.257.503-1.876.773l-32.256-32.257c10.293-6.613 21.812-11.473 34.132-14.171zm-46.261 23.255 31.097 31.097c-3.956 3.093-7.521 6.658-10.613 10.613l-31.097-31.097c3.281-3.783 6.829-7.331 10.613-10.613zm-19.698 22.742 32.257 32.256c-.27.619-.523 1.246-.773 1.876h-45.655c2.699-12.319 7.558-23.839 14.171-34.132zm-16.604 56.632c0-2.522.095-5.022.271-7.5h43.995c-.302 2.46-.476 4.96-.476 7.5s.174 5.04.476 7.5h-43.995c-.177-2.478-.271-4.978-.271-7.5zm48.088 22.5c.249.629.503 1.257.773 1.876l-32.257 32.256c-6.613-10.293-11.472-21.813-14.171-34.132z"/></g></svg>